<svg width="45" height="45" viewBox="0 0 45 45" fill="none" xmlns="http://www.w3.org/2000/svg">
<g clip-path="url(#clip0_6289_8746)">
<path d="M22.5 44.7457C34.6503 44.7457 44.5 34.8959 44.5 22.7457C44.5 10.5954 34.6503 0.745667 22.5 0.745667C10.3497 0.745667 0.5 10.5954 0.5 22.7457C0.5 34.8959 10.3497 44.7457 22.5 44.7457Z" fill="url(#paint0_linear_6289_8746)"/>
<path d="M23 35.2457C25.4723 35.2457 27.889 34.5126 29.9446 33.139C32.0002 31.7655 33.6024 29.8133 34.5485 27.5292C35.4946 25.2451 35.7421 22.7318 35.2598 20.307C34.7775 17.8823 33.587 15.655 31.8388 13.9068C30.0907 12.1587 27.8634 10.9682 25.4386 10.4859C23.0139 10.0035 20.5005 10.2511 18.2165 11.1972C15.9324 12.1433 13.9801 13.7454 12.6066 15.801C11.2331 17.8567 10.5 20.2734 10.5 22.7457C10.5038 26.0597 11.822 29.2369 14.1654 31.5803C16.5087 33.9237 19.686 35.2419 23 35.2457ZM29.25 19.6207H31.75C31.8525 19.6207 31.9535 19.6459 32.044 19.6941C32.1344 19.7423 32.2117 19.812 32.2689 19.8971C32.3261 19.9822 32.3614 20.08 32.3719 20.182C32.3823 20.284 32.3675 20.387 32.3287 20.4819L30.2837 25.4819C30.2541 25.5598 30.2092 25.6309 30.1516 25.6912C30.094 25.7514 30.025 25.7996 29.9486 25.8327C29.8721 25.8659 29.7898 25.8835 29.7065 25.8844C29.6232 25.8853 29.5405 25.8695 29.4634 25.838C29.3862 25.8065 29.3162 25.7599 29.2573 25.7009C29.1984 25.642 29.152 25.5718 29.1206 25.4946C29.0893 25.4174 29.0737 25.3347 29.0747 25.2514C29.0758 25.1681 29.0935 25.0858 29.1269 25.0094L30.8194 20.8707H29.25C29.0842 20.8707 28.9253 20.8048 28.8081 20.6876C28.6908 20.5704 28.625 20.4114 28.625 20.2457C28.625 20.0799 28.6908 19.9209 28.8081 19.8037C28.9253 19.6865 29.0842 19.6207 29.25 19.6207ZM23.6875 24.9663L26.1875 19.9663C26.2616 19.8179 26.3916 19.7051 26.5489 19.6526C26.7062 19.6001 26.8779 19.6122 27.0262 19.6863C27.1746 19.7604 27.2874 19.8904 27.34 20.0477C27.3925 20.205 27.3803 20.3767 27.3062 20.525L24.8062 25.525C24.7696 25.5985 24.7188 25.664 24.6568 25.7178C24.5948 25.7717 24.5227 25.8128 24.4449 25.8388C24.367 25.8648 24.2847 25.8752 24.2028 25.8694C24.1209 25.8636 24.041 25.8417 23.9675 25.805C23.894 25.7684 23.8285 25.7176 23.7747 25.6556C23.7209 25.5935 23.6798 25.5215 23.6538 25.4437C23.6278 25.3658 23.6174 25.2835 23.6232 25.2016C23.6289 25.1197 23.6508 25.0398 23.6875 24.9663ZM18.625 20.2457C18.625 20.0799 18.6908 19.9209 18.8081 19.8037C18.9253 19.6865 19.0842 19.6207 19.25 19.6207C19.4158 19.6207 19.5747 19.6865 19.6919 19.8037C19.8092 19.9209 19.875 20.0799 19.875 20.2457V22.1207H21.125V20.2457C21.125 20.0799 21.1908 19.9209 21.3081 19.8037C21.4253 19.6865 21.5842 19.6207 21.75 19.6207C21.9158 19.6207 22.0747 19.6865 22.1919 19.8037C22.3092 19.9209 22.375 20.0799 22.375 20.2457V25.2457C22.375 25.4114 22.3092 25.5704 22.1919 25.6876C22.0747 25.8048 21.9158 25.8707 21.75 25.8707C21.5842 25.8707 21.4253 25.8048 21.3081 25.6876C21.1908 25.5704 21.125 25.4114 21.125 25.2457V23.3707H19.25C19.0842 23.3707 18.9253 23.3048 18.8081 23.1876C18.6908 23.0704 18.625 22.9114 18.625 22.7457V20.2457ZM13.625 25.2457V22.7457C13.625 22.5799 13.6908 22.4209 13.8081 22.3037C13.9253 22.1865 14.0842 22.1207 14.25 22.1207H16.125V20.8707H14.25C14.0842 20.8707 13.9253 20.8048 13.8081 20.6876C13.6908 20.5704 13.625 20.4114 13.625 20.2457C13.625 20.0799 13.6908 19.9209 13.8081 19.8037C13.9253 19.6865 14.0842 19.6207 14.25 19.6207H16.75C16.9158 19.6207 17.0747 19.6865 17.1919 19.8037C17.3092 19.9209 17.375 20.0799 17.375 20.2457V22.7457C17.375 22.9114 17.3092 23.0704 17.1919 23.1876C17.0747 23.3048 16.9158 23.3707 16.75 23.3707H14.875V24.6207H16.75C16.9158 24.6207 17.0747 24.6865 17.1919 24.8037C17.3092 24.9209 17.375 25.0799 17.375 25.2457C17.375 25.4114 17.3092 25.5704 17.1919 25.6876C17.0747 25.8048 16.9158 25.8707 16.75 25.8707H14.25C14.0842 25.8707 13.9253 25.8048 13.8081 25.6876C13.6908 25.5704 13.625 25.4114 13.625 25.2457Z" fill="white"/>
<path d="M40.3194 21.6788C40.2022 21.5616 40.0432 21.4958 39.8775 21.4958C39.7118 21.4958 39.5528 21.5616 39.4356 21.6788L39.2294 21.8851C39.0291 18.0512 37.4778 14.412 34.8506 11.6126C32.2233 8.81322 28.6898 7.03442 24.8763 6.5915C21.0628 6.14857 17.2156 7.07013 14.0167 9.19283C10.8178 11.3155 8.47373 14.5023 7.4 18.1882C7.35359 18.3473 7.37229 18.5184 7.45199 18.6637C7.5317 18.809 7.66587 18.9168 7.825 18.9632C7.98413 19.0096 8.15518 18.9909 8.30052 18.9112C8.44586 18.8315 8.55359 18.6973 8.6 18.5382C9.58786 15.1451 11.742 12.2098 14.6825 10.2498C17.6231 8.28979 21.1612 7.43092 24.6732 7.82462C28.1851 8.21833 31.4452 9.83934 33.8788 12.4018C36.3123 14.9643 37.763 18.3038 37.975 21.8313L37.8225 21.6788C37.7046 21.565 37.5468 21.502 37.3829 21.5034C37.219 21.5048 37.0622 21.5705 36.9464 21.6864C36.8305 21.8023 36.7648 21.9591 36.7633 22.1229C36.7619 22.2868 36.8249 22.4447 36.9388 22.5626L38.1888 23.8126C38.306 23.9297 38.4649 23.9955 38.6306 23.9955C38.7964 23.9955 38.9553 23.9297 39.0725 23.8126L40.3225 22.5626C40.4393 22.4449 40.5045 22.2858 40.5039 22.12C40.5033 21.9543 40.437 21.7956 40.3194 21.6788Z" fill="white"/>
<path d="M38.1776 26.5282C38.0988 26.5052 38.0163 26.4979 37.9347 26.5069C37.8531 26.5158 37.7741 26.5407 37.7021 26.5801C37.6301 26.6196 37.5667 26.6729 37.5153 26.7369C37.4639 26.8009 37.4256 26.8744 37.4026 26.9532C36.4131 30.3441 34.2586 33.277 31.3188 35.2353C28.3789 37.1935 24.8423 38.0514 21.3319 37.6578C17.8215 37.2642 14.5627 35.6444 12.1295 33.0838C9.69625 30.5231 8.24478 27.1859 8.03076 23.66L8.18326 23.8125C8.24091 23.8722 8.30988 23.9198 8.38613 23.9526C8.46238 23.9853 8.54439 24.0026 8.62738 24.0033C8.71037 24.004 8.79267 23.9882 8.86948 23.9568C8.94629 23.9254 9.01607 23.879 9.07475 23.8203C9.13344 23.7616 9.17985 23.6918 9.21127 23.615C9.2427 23.5382 9.25851 23.4559 9.25779 23.3729C9.25707 23.2899 9.23983 23.2079 9.20707 23.1317C9.17431 23.0554 9.1267 22.9864 9.06701 22.9288L7.81701 21.6788C7.6998 21.5616 7.54086 21.4958 7.37513 21.4958C7.2094 21.4958 7.05046 21.5616 6.93326 21.6788L5.68326 22.9288C5.56941 23.0467 5.50641 23.2045 5.50784 23.3684C5.50926 23.5323 5.57499 23.689 5.69087 23.8049C5.80675 23.9208 5.96351 23.9865 6.12738 23.988C6.29125 23.9894 6.44913 23.9264 6.56701 23.8125L6.77326 23.6063C6.97359 27.4402 8.52485 31.0793 11.1521 33.8787C13.7793 36.6781 17.3128 38.4569 21.1263 38.8998C24.9398 39.3428 28.787 38.4212 31.9859 36.2985C35.1848 34.1758 37.5289 30.9891 38.6026 27.3032C38.6256 27.2244 38.6329 27.1418 38.6239 27.0602C38.615 26.9786 38.5901 26.8996 38.5506 26.8276C38.5112 26.7557 38.4579 26.6922 38.3939 26.6408C38.3299 26.5894 38.2564 26.5511 38.1776 26.5282Z" fill="white"/>
</g>
<defs>
<linearGradient id="paint0_linear_6289_8746" x1="9.5" y1="4.74567" x2="37.5" y2="39.2457" gradientUnits="userSpaceOnUse">
<stop stop-color="#6C7FEB"/>
<stop offset="1" stop-color="#7569E4"/>
</linearGradient>
<clipPath id="clip0_6289_8746">
<rect width="44" height="44" fill="white" transform="translate(0.5 0.745667)"/>
</clipPath>
</defs>
</svg>
