<svg width="44" height="44" viewBox="0 0 44 44" fill="none" xmlns="http://www.w3.org/2000/svg">
<rect width="44" height="44" rx="12" fill="#FF6159"/>
<path d="M26.293 16.6271C27.3409 16.6271 28.4958 17.1119 29.4492 18.0216C26.1912 20.541 26.7925 25.6017 30.2598 27.5021C29.9311 28.2121 29.6778 28.679 29.1729 29.4493L29.1719 29.4513C28.7056 30.1678 28.1751 30.918 27.5811 31.4874C26.9813 32.0623 26.4046 32.3694 25.8457 32.3771H25.8438C25.3511 32.3854 25.0519 32.2491 24.5664 32.0294L24.5645 32.0284C23.9855 31.7685 23.2633 31.4219 22.0264 31.4337C20.7985 31.4338 20.072 31.7613 19.4814 32.0265C18.9847 32.246 18.6719 32.3855 18.1641 32.3771H18.1621C17.5966 32.3692 17.0381 32.0873 16.4697 31.5636C15.9013 31.0399 15.3912 30.3363 14.9277 29.6241C13.6754 27.6992 12.9867 25.6174 12.8018 23.7325C12.6156 21.8351 12.9432 20.2035 13.6396 19.1241L13.6406 19.1251C14.6886 17.5066 16.2973 16.6272 17.7139 16.6271C18.4876 16.6271 19.1112 16.845 19.8174 17.0997L19.8193 17.1007C20.4445 17.324 21.1744 17.5928 22.0146 17.5929C22.8145 17.5929 23.4535 17.3444 24.0176 17.13L24.0244 17.1281C24.6859 16.8702 25.3358 16.6271 26.293 16.6271Z" fill="white" stroke="white" stroke-width="1.5"/>
<path d="M25.3135 11.05C25.2203 11.7848 24.8849 12.4986 24.4492 13.0598L24.4463 13.0627C23.9842 13.6641 23.271 14.1422 22.5508 14.3244C22.6278 13.6077 22.9828 12.8824 23.4424 12.3215L23.4434 12.3225C23.9142 11.7603 24.6225 11.2929 25.3135 11.05Z" fill="white" stroke="white" stroke-width="1.5"/>
</svg>
