<svg width="24" height="25" viewBox="0 0 24 25" fill="none" xmlns="http://www.w3.org/2000/svg">
<path d="M19.3185 23.9956H4.68225C2.514 23.9956 0.75 22.2316 0.75 20.0634V11.4279C0.75 9.25961 2.514 7.49561 4.68225 7.49561H19.3185C21.4867 7.49561 23.25 9.25961 23.25 11.4279V20.0641C23.25 22.2324 21.486 23.9956 19.3185 23.9956ZM4.68225 8.99561C3.34125 8.99561 2.25 10.0869 2.25 11.4279V20.0641C2.25 21.4051 3.34125 22.4964 4.68225 22.4964H19.3185C20.6595 22.4964 21.75 21.4051 21.75 20.0641V11.4279C21.75 10.0869 20.6595 8.99561 19.3185 8.99561H4.68225Z" fill="black"/>
<path d="M18.6606 8.99556H5.33984L8.63459 3.44481C9.34634 2.24481 10.6048 1.52856 11.9998 1.52856C13.3948 1.52856 14.6533 2.24556 15.3651 3.44481L18.6606 8.99556ZM7.97384 7.49556H16.0251L14.0743 4.21056C13.6356 3.47031 12.8601 3.02856 11.9991 3.02856C11.1381 3.02856 10.3626 3.47031 9.92309 4.21056L7.97309 7.49556H7.97384Z" fill="black"/>
<path d="M19.3177 8.24561H4.68225C2.925 8.24561 1.5 9.66986 1.5 11.4279V20.0641C1.5 21.8214 2.925 23.2464 4.68225 23.2464H19.3177C21.075 23.2464 22.5 21.8214 22.5 20.0641V11.4279C22.5 9.67061 21.075 8.24561 19.3177 8.24561ZM4.5 21.0039C4.086 21.0039 3.75 20.6679 3.75 20.2539C3.75 19.8399 4.086 19.5039 4.5 19.5039C4.914 19.5039 5.25 19.8399 5.25 20.2539C5.25 20.6679 4.914 21.0039 4.5 21.0039ZM4.5 11.8494C4.086 11.8494 3.75 11.5134 3.75 11.0994C3.75 10.6854 4.086 10.3494 4.5 10.3494C4.914 10.3494 5.25 10.6854 5.25 11.0994C5.25 11.5134 4.914 11.8494 4.5 11.8494ZM11.4803 14.2636C11.4803 15.0196 11.166 15.7426 10.6125 16.2579L7.93425 18.7539H10.6567C11.0707 18.7539 11.4067 19.0899 11.4067 19.5039C11.4067 19.9179 11.0707 20.2539 10.6567 20.2539H7.43175C6.89325 20.2539 6.417 19.9299 6.21975 19.4289C6.0225 18.9279 6.14925 18.3661 6.54375 17.9994L9.59025 15.1599C9.83775 14.9289 9.98025 14.6019 9.98025 14.2636V14.0491C9.98025 13.4386 9.56475 12.8709 8.9625 12.7711C8.196 12.6444 7.53 13.2354 7.53 13.9794V14.3724C7.53 14.7864 7.194 15.1224 6.78 15.1224C6.366 15.1224 6.03 14.7864 6.03 14.3724V14.0559C6.03 12.7554 6.909 11.5726 8.18325 11.3116C9.93525 10.9539 11.4803 12.2889 11.4803 13.9786V14.2636ZM17.4795 19.4821C17.4795 19.8961 17.1435 20.2321 16.7295 20.2321C16.3155 20.2321 15.9795 19.8961 15.9795 19.4821V17.0746H13.7977C13.2787 17.0746 12.7867 16.8241 12.483 16.4034C12.1785 15.9834 12.093 15.4381 12.2543 14.9454L13.2203 11.9896C13.3485 11.5959 13.7723 11.3814 14.166 11.5096C14.5598 11.6386 14.7743 12.0616 14.646 12.4554L13.6807 15.4111C13.6672 15.4516 13.6733 15.4891 13.698 15.5229C13.722 15.5566 13.7558 15.5739 13.7985 15.5739H15.9802V12.7531C15.9802 12.3391 16.3162 12.0031 16.7302 12.0031C17.1442 12.0031 17.4802 12.3391 17.4802 12.7531V19.4814L17.4795 19.4821ZM19.4993 21.0039C19.0853 21.0039 18.7493 20.6679 18.7493 20.2539C18.7493 19.8399 19.0853 19.5039 19.4993 19.5039C19.9132 19.5039 20.2493 19.8399 20.2493 20.2539C20.2493 20.6679 19.9132 21.0039 19.4993 21.0039ZM19.4993 11.8494C19.0853 11.8494 18.7493 11.5134 18.7493 11.0994C18.7493 10.6854 19.0853 10.3494 19.4993 10.3494C19.9132 10.3494 20.2493 10.6854 20.2493 11.0994C20.2493 11.5134 19.9132 11.8494 19.4993 11.8494Z" fill="black"/>
</svg>
