<svg width="44" height="44" viewBox="0 0 44 44" fill="none" xmlns="http://www.w3.org/2000/svg">
<rect width="44" height="44" rx="12" fill="#FF6159"/>
<path d="M26.6476 17.6463L15.3625 11.6046C14.7761 11.2907 14.1402 11.2746 13.5898 11.4753L23.2042 21.0897L26.6476 17.6463Z" fill="white"/>
<path d="M30.8579 19.8994L27.6073 18.1591L23.9414 21.8249L27.6073 25.4908L30.8579 23.7505C32.3956 22.9272 32.3956 20.7226 30.8579 19.8994Z" fill="white"/>
<path d="M12.7106 12.0656C12.3658 12.4446 12.1484 12.9505 12.1484 13.5302V30.1196C12.1484 30.6993 12.3658 31.2053 12.7105 31.5843L22.4699 21.8249L12.7106 12.0656Z" fill="white"/>
<path d="M13.5898 32.1746C14.1402 32.3752 14.7761 32.3592 15.3625 32.0452L26.6476 26.0036L23.2042 22.5602L13.5898 32.1746Z" fill="white"/>
</svg>
